<svg id="Layer_1" data-name="Layer 1" xmlns="http://www.w3.org/2000/svg" viewBox="0 0 49.00534 47"><defs><style>.cls-1{fill:#283149;}</style></defs><title>browser compatible icon</title><path class="cls-1" d="M706.11774,1934.70044a.34366.34366,0,0,0-.53717,0,.52591.52591,0,0,0,0,.66077.37087.37087,0,0,0,.26855.14355.31316.31316,0,0,0,.26855-.14355.55514.55514,0,0,0,.11676-.33032A.46437.46437,0,0,0,706.11774,1934.70044Z" transform="translate(-702.99823 -1924)"/><path class="cls-1" d="M707.75262,1934.70044a.34388.34388,0,0,0-.53717,0,.52591.52591,0,0,0,0,.66077.37087.37087,0,0,0,.26855.14355.31316.31316,0,0,0,.26855-.14355.52591.52591,0,0,0,0-.66077Z" transform="translate(-702.99823 -1924)"/><path class="cls-1" d="M709.38751,1934.70044a.3435.3435,0,0,0-.53717,0,.52348.52348,0,0,0-.11676.33032.46459.46459,0,0,0,.11676.33032.35118.35118,0,0,0,.26855.14356.31316.31316,0,0,0,.26855-.14356.52591.52591,0,0,0,0-.66077Z" transform="translate(-702.99823 -1924)"/><path class="cls-1" d="M748.44072,1924H712.97624c-1.77475,0-2.97624,1.39655-2.97624,3.47115V1932h-3.8553c-1.88675,0-3.1447,1.4761-3.1447,3.6693V1970.527a.43689.43689,0,0,0,.38431.473h41.23137a.43689.43689,0,0,0,.38431-.473V1963h6.60857a.439.439,0,0,0,.39143-.473V1927.6693a3.53914,3.53914,0,0,0-3.41518-3.66589Q748.51283,1924.0003,748.44072,1924ZM745,1969.88332h0V1970H704v-32h39.95145a.43082.43082,0,0,0,.40187-.33251.49613.49613,0,0,0-.2852-.641.50229.50229,0,0,0-.098-.02644H704v-1.29419c0-1.66614.9203-2.70581,2.41875-2.70581h35.83214a2.64164,2.64164,0,0,1,2.74942,2.52378q.00305.091-.00031.182ZM750.99969,1962H745v-26.28078a3.513,3.513,0,0,0-3.285-3.71489q-.0805-.00407-.16112-.00432H711l-1-2h39.94595a.43085.43085,0,0,0,.40194-.33221.496.496,0,0,0-.383-.66779H710v-1.27142c0-1.68574.92029-2.72858,2.407-2.72858h35.832A2.69338,2.69338,0,0,1,751,1927.62149q.001.05354-.00018.10709V1962Z" transform="translate(-702.99823 -1924)"/><path class="cls-1" d="M712.996,1926.23975a.32773.32773,0,0,0-.53717,0,.52348.52348,0,0,0-.11676.33032.46459.46459,0,0,0,.11676.33032.3231.3231,0,0,0,.53717,0,.52591.52591,0,0,0,0-.66077Z" transform="translate(-702.99823 -1924)"/><path class="cls-1" d="M714.64258,1926.23975a.32773.32773,0,0,0-.53717,0,.52591.52591,0,0,0,0,.66077.37087.37087,0,0,0,.26855.14355.35118.35118,0,0,0,.26855-.14355.55514.55514,0,0,0,.11676-.33032A.48867.48867,0,0,0,714.64258,1926.23975Z" transform="translate(-702.99823 -1924)"/><path class="cls-1" d="M716.27747,1926.23975a.32773.32773,0,0,0-.53717,0,.52591.52591,0,0,0,0,.66077.3231.3231,0,0,0,.53717,0A.52591.52591,0,0,0,716.27747,1926.23975Z" transform="translate(-702.99823 -1924)"/></svg>